<?xml version="1.0" encoding="utf-8"?>
<!-- Generator: Adobe Illustrator 16.0.0, SVG Export Plug-In . SVG Version: 6.00 Build 0)  -->
<!DOCTYPE svg PUBLIC "-//W3C//DTD SVG 1.1//EN" "http://www.w3.org/Graphics/SVG/1.1/DTD/svg11.dtd">
<svg version="1.1" id="Layer_1" xmlns="http://www.w3.org/2000/svg" xmlns:xlink="http://www.w3.org/1999/xlink" x="0px" y="0px"
	 width="189.849px" height="47.482px" viewBox="0 0 189.849 47.482" enable-background="new 0 0 189.849 47.482"
	 xml:space="preserve">
<g>
	<g>
		<path fill="#0a8198" d="M0,47h10.457V14.236c0,0-4.138-3.902-10.457-5.456V47z M131.756,47h10.457V20.825V8.78
			c-6.318,1.554-10.457,5.456-10.457,5.456V47z M28.75,8.161c-8.707,0.307-14.807,6.075-14.807,6.075V47H24.4V21.258
			c0.407-1.65,2.762-2.758,4.546-3.145c3.82-0.83,8.002,1.453,8.002,5.504V47h0.697h9.76V23.109
			C47.405,12.087,37.47,7.853,28.75,8.161z M184.311,25.791c-1.008-10.076-9.422-17.675-19.572-17.675
			c-10.847,0-19.672,8.831-19.672,19.686c0,10.853,8.825,19.681,19.672,19.681c5.119,0,9.955-1.985,13.679-5.601L179.761,47h10.088
			L184.311,25.791z M164.738,37.212c-5.185,0-9.398-4.216-9.398-9.396c0-5.183,4.214-9.398,9.398-9.398
			c5.182,0,9.397,4.216,9.397,9.398C174.137,32.996,169.92,37.212,164.738,37.212z M88.326,8.206
			c-10.805,0-19.594,8.789-19.594,19.594c0,10.803,8.79,19.592,19.594,19.592c8.108,0,15.266-4.877,18.235-12.426l0.16-0.408H95.426
			l-0.088,0.09c-1.861,1.906-4.352,2.955-7.012,2.955c-3.885,0-7.441-2.348-8.987-5.887h28.185l0.047-0.242
			c0.23-1.224,0.349-2.459,0.349-3.676C107.919,16.995,99.13,8.206,88.326,8.206z M79.487,23.553
			c1.629-3.391,5.05-5.558,8.839-5.558c3.79,0,7.209,2.166,8.838,5.558H79.487z M125.65,8.161
			c-8.709,0.307-14.808,6.075-14.808,6.075V47H121.3V20.76c1.226-1.882,5.34-2.693,6.97-2.761V8.208
			C127.392,8.146,126.515,8.131,125.65,8.161z M61.347,8.627L61.347,8.627V0H50.89v41.392c0,0,6.1,5.768,14.807,6.074
			c0.865,0.03,1.742,0.015,2.62-0.047v-9.791c-1.63-0.066-5.746-0.879-6.97-2.762v-15.75h6.97V8.659h-6.97V8.627z"/>
	</g>
</g>
</svg>
